# xmcd CD database file
# Copyright (C) 1997 Ti Kan
# 
# Track frame offsets:
#     183
#     16470
#     39948
#     54778
#     70705
#     83770
#     103370
#     118343
#     132315
#     145613
#     161808
#     177348
#     199250
#     217370
# 
# Disc length: 3134 seconds
# 
# Revision: 1
# Processed by: cddbd v1.4b41PL1 Copyright (c) Steve Scherf et al.
# Submitted via: DiscPlay 4.0.3
# 
DISCID=ce0c3c0e
DTITLE=John Brack - Jeff Turner and Maja Brunner - A Time Together
DYEAR=1900
DGENRE=
TTITLE0=He Walked On The Water
TTITLE1=Mary's Boy Child
TTITLE2=The Easy Way
TTITLE3=Put Your Hand In The Hand
TTITLE4=I Believe
TTITLE5=Will The Circle Be Unbroken
TTITLE6=Santa Bring My Baby Home
TTITLE7=Oh Wonderful Night
TTITLE8=Maybe I Can Talk Her Into Stayin' This Year
TTITLE9=Christmas Is
TTITLE10=O' Come, All Ye Faithful
TTITLE11=Old Time Family Christmas
TTITLE12=Every Day Is Christmas
TTITLE13=There'll Be Peace In The Valley For Me
EXTD=
EXTT0=
EXTT1=
EXTT2=
EXTT3=
EXTT4=
EXTT5=
EXTT6=
EXTT7=
EXTT8=
EXTT9=
EXTT10=
EXTT11=
EXTT12=
EXTT13=
PLAYORDER=
